#N canvas 221 39 1259 737 10;
#X msg 22 497 disconnect;
#X obj 280 674 sendOSC;
#X floatatom 281 715 5 0 0 0 - - -;
#X floatatom 328 716 5 0 0 0 - - -;
#X obj 124 98 bng 15 250 50 0 empty empty empty 17 7 0 10 -262144 -1
-1;
#X obj 121 186 bng 15 250 50 0 empty empty empty 17 7 0 10 -262144
-1 -1;
#X text 147 138 comment;
#X obj 337 46 bng 15 250 50 0 empty empty empty 17 7 0 10 -262144 -1
-1;
#X obj 336 93 f;
#X floatatom 376 58 5 20 500 0 - - -;
#X obj 422 45 bng 15 250 50 0 empty empty empty 17 7 0 10 -262144 -1
-1;
#X obj 421 92 f;
#X floatatom 461 57 5 20 500 0 - - -;
#X obj 517 45 bng 15 250 50 0 empty empty empty 17 7 0 10 -262144 -1
-1;
#X obj 516 92 f;
#X floatatom 556 57 5 20 500 0 - - -;
#X obj 610 46 bng 15 250 50 0 empty empty empty 17 7 0 10 -262144 -1
-1;
#X obj 609 93 f;
#X floatatom 649 58 5 20 500 0 - - -;
#X obj 709 46 bng 15 250 50 0 empty empty empty 17 7 0 10 -262144 -1
-1;
#X obj 708 93 f;
#X floatatom 748 58 5 20 500 0 - - -;
#X obj 818 46 bng 15 250 50 0 empty empty empty 17 7 0 10 -262144 -1
-1;
#X obj 817 93 f;
#X floatatom 857 58 5 20 500 0 - - -;
#X obj 912 47 bng 15 250 50 0 empty empty empty 17 7 0 10 -262144 -1
-1;
#X obj 911 94 f;
#X floatatom 951 59 5 20 500 0 - - -;
#X obj 24 382 bng 15 250 50 0 empty empty empty 17 7 0 10 -262144 -1
-1;
#X obj 22 458 bng 15 250 50 0 empty empty empty 17 7 0 10 -262144 -1
-1;
#X obj 1004 48 bng 15 250 50 0 empty empty empty 17 7 0 10 -262144
-1 -1;
#X obj 1003 95 f;
#X floatatom 1040 58 5 1 3600 0 - - -;
#X msg 122 141 send /takeoff;
#X obj 125 18 bng 15 250 50 0 empty empty empty 17 7 0 10 -262144 -1
-1;
#X text 148 58 comment;
#X msg 123 61 send /command;
#X msg 120 228 send /land;
#X obj 17 577 bng 15 250 50 0 empty empty empty 17 7 0 10 -262144 -1
-1;
#X msg 17 620 send /exit;
#X msg 415 143 send /down \$1;
#X msg 510 143 send /left \$1;
#X msg 603 144 send /right \$1;
#X msg 702 144 send /forward \$1;
#X msg 811 144 send /back \$1;
#X msg 905 145 send /back \$1;
#X msg 997 146 send /cw \$1;
#X obj 1088 48 bng 15 250 50 0 empty empty empty 17 7 0 10 -262144
-1 -1;
#X obj 1087 95 f;
#X floatatom 1124 58 5 1 3600 0 - - -;
#X msg 1081 146 send /ccw \$1;
#X msg 330 144 send /up \$1;
#X obj 905 183 bng 15 250 50 0 empty empty empty 17 7 0 10 -262144
-1 -1;
#X msg 905 245 send /flip l;
#X msg 23 415 connect localhost 20001;
#X obj 997 182 bng 15 250 50 0 empty empty empty 17 7 0 10 -262144
-1 -1;
#X msg 997 244 send /flip r;
#X obj 1085 181 bng 15 250 50 0 empty empty empty 17 7 0 10 -262144
-1 -1;
#X obj 1174 180 bng 15 250 50 0 empty empty empty 17 7 0 10 -262144
-1 -1;
#X msg 1085 243 send /flip f;
#X msg 1174 242 send /flip b;
#X obj 224 99 bng 15 250 50 0 empty empty empty 17 7 0 10 -262144 -1
-1;
#X obj 223 146 f;
#X floatatom 263 105 5 1 100 0 - - -;
#X obj 882 468 bng 15 250 50 0 empty empty empty 17 7 0 10 -262144
-1 -1;
#X text 905 508 comment;
#X obj 969 468 bng 15 250 50 0 empty empty empty 17 7 0 10 -262144
-1 -1;
#X text 992 508 comment;
#X obj 1073 467 bng 15 250 50 0 empty empty empty 17 7 0 10 -262144
-1 -1;
#X text 1096 507 comment;
#X msg 880 511 send /speed;
#X msg 967 511 send /battery;
#X msg 1071 510 send /time;
#X msg 217 197 send /Setspeed \$1;
#X obj 624 -123 notein;
#X obj 625 -87 stripnote;
#X floatatom 624 -54 5 0 0 0 - - -;
#X floatatom 673 -55 5 0 0 0 - - -;
#X obj 615 -8 select 48 49 50 51 52 53 54 55 56 57 58 59 60;
#X obj 948 339 notein;
#X obj 945 365 stripnote;
#X floatatom 940 391 5 0 0 0 - - -;
#X floatatom 989 390 5 0 0 0 - - -;
#X obj 937 416 select 61 62 63;
#X obj 70 259 notein;
#X obj 67 285 stripnote;
#X floatatom 62 311 5 0 0 0 - - -;
#X floatatom 111 310 5 0 0 0 - - -;
#X obj 59 336 select 70 71 72;
#X obj 49 -105 notein;
#X obj 46 -79 stripnote;
#X floatatom 41 -53 5 0 0 0 - - -;
#X floatatom 90 -54 5 0 0 0 - - -;
#X obj 38 -28 select 69 68 67;
#X connect 0 0 1 0;
#X connect 1 0 2 0;
#X connect 1 1 3 0;
#X connect 4 0 33 0;
#X connect 5 0 37 0;
#X connect 7 0 8 0;
#X connect 8 0 51 0;
#X connect 9 0 8 1;
#X connect 10 0 11 0;
#X connect 11 0 40 0;
#X connect 12 0 11 1;
#X connect 13 0 14 0;
#X connect 14 0 41 0;
#X connect 15 0 14 1;
#X connect 16 0 17 0;
#X connect 17 0 42 0;
#X connect 18 0 17 1;
#X connect 19 0 20 0;
#X connect 20 0 43 0;
#X connect 21 0 20 1;
#X connect 22 0 23 0;
#X connect 23 0 44 0;
#X connect 24 0 23 1;
#X connect 25 0 26 0;
#X connect 26 0 45 0;
#X connect 27 0 26 1;
#X connect 28 0 54 0;
#X connect 29 0 0 0;
#X connect 30 0 31 0;
#X connect 31 0 46 0;
#X connect 32 0 31 1;
#X connect 33 0 1 0;
#X connect 34 0 36 0;
#X connect 36 0 1 0;
#X connect 37 0 1 0;
#X connect 38 0 39 0;
#X connect 39 0 1 0;
#X connect 40 0 1 0;
#X connect 41 0 1 0;
#X connect 42 0 1 0;
#X connect 43 0 1 0;
#X connect 44 0 1 0;
#X connect 45 0 1 0;
#X connect 46 0 1 0;
#X connect 47 0 48 0;
#X connect 48 0 50 0;
#X connect 49 0 48 1;
#X connect 50 0 1 0;
#X connect 51 0 1 0;
#X connect 52 0 53 0;
#X connect 53 0 1 0;
#X connect 54 0 1 0;
#X connect 55 0 56 0;
#X connect 56 0 1 0;
#X connect 57 0 59 0;
#X connect 58 0 60 0;
#X connect 59 0 1 0;
#X connect 60 0 1 0;
#X connect 61 0 62 0;
#X connect 62 0 73 0;
#X connect 63 0 62 1;
#X connect 64 0 70 0;
#X connect 66 0 71 0;
#X connect 68 0 72 0;
#X connect 70 0 1 0;
#X connect 71 0 1 0;
#X connect 72 0 1 0;
#X connect 73 0 1 0;
#X connect 74 0 75 0;
#X connect 74 1 75 1;
#X connect 75 0 76 0;
#X connect 75 1 77 0;
#X connect 76 0 78 0;
#X connect 77 0 9 0;
#X connect 77 0 12 0;
#X connect 77 0 15 0;
#X connect 77 0 18 0;
#X connect 77 0 21 0;
#X connect 77 0 24 0;
#X connect 77 0 27 0;
#X connect 77 0 49 0;
#X connect 77 0 32 0;
#X connect 78 0 7 0;
#X connect 78 1 10 0;
#X connect 78 2 13 0;
#X connect 78 3 16 0;
#X connect 78 4 19 0;
#X connect 78 5 22 0;
#X connect 78 6 25 0;
#X connect 78 7 30 0;
#X connect 78 8 47 0;
#X connect 78 9 52 0;
#X connect 78 10 55 0;
#X connect 78 11 57 0;
#X connect 78 12 58 0;
#X connect 79 0 80 0;
#X connect 79 1 80 1;
#X connect 80 0 81 0;
#X connect 80 1 82 0;
#X connect 81 0 83 0;
#X connect 83 0 64 0;
#X connect 83 1 66 0;
#X connect 83 2 68 0;
#X connect 84 0 85 0;
#X connect 84 1 85 1;
#X connect 85 0 86 0;
#X connect 85 1 87 0;
#X connect 86 0 88 0;
#X connect 88 0 28 0;
#X connect 88 1 29 0;
#X connect 88 2 38 0;
#X connect 89 0 90 0;
#X connect 89 1 90 1;
#X connect 90 0 91 0;
#X connect 90 1 92 0;
#X connect 91 0 93 0;
#X connect 93 0 5 0;
#X connect 93 1 4 0;
#X connect 93 2 34 0;
